# xmcd
#
# Track frame offsets:
# 150
# 13441
# 28422
# 46352
# 59456
# 76290
# 87744
# 103708
# 115498
# 131162
# 145769
# 164568
# 183754
#
# Disc length: 2701 seconds
#
#
# Revision: 0
# Processed by: cddbd v1.5.1PL2 Copyright (c) Steve Scherf et al.
# Submitted via: FreeRIP 2.944 
#
DISCID=c00a8b0d
DTITLE=best o the west - wanted
DYEAR=1900
DGENRE=Country
TTITLE0=you still got it
TTITLE1=just between you and me
TTITLE2=standing outside the fire
TTITLE3=let er rip
TTITLE4=shut up and kiss me
TTITLE5=callin baton rouge
TTITLE6=blame it on your heart
TTITLE7=thats what I like about you
TTITLE8=I aint never seen no one like you
TTITLE9=stand by your man
TTITLE10=just like jesse james
TTITLE11=my maria
TTITLE12=we shall be free
EXTD=
EXTT0=
EXTT1=
EXTT2=
EXTT3=
EXTT4=
EXTT5=
EXTT6=
EXTT7=
EXTT8=
EXTT9=
EXTT10=
EXTT11=
EXTT12=
PLAYORDER=
